<svg width="38" height="38" viewBox="0 0 38 38" fill="none" xmlns="http://www.w3.org/2000/svg">
<g filter="url(#filter0_d_1_11499)">
<path d="M21.5699 25.1818C20.3454 25.1818 19.1943 24.9475 18.1165 24.4789C17.0387 24.016 16.0879 23.3724 15.264 22.5481C14.4401 21.7295 13.794 20.7811 13.3257 19.7028C12.863 18.6245 12.6316 17.47 12.6316 16.2392C12.6316 15.0141 12.863 13.8624 13.3257 12.7841C13.794 11.7058 14.4373 10.7545 15.2555 9.93029C16.0794 9.10604 17.0302 8.46244 18.108 7.9995C19.1915 7.53092 20.3454 7.29663 21.5699 7.29663C22.7945 7.29663 23.9456 7.53092 25.0234 7.9995C26.1068 8.46244 27.0577 9.10604 27.8759 9.93029C28.6997 10.7545 29.3459 11.7058 29.8142 12.7841C30.2826 13.8624 30.5168 15.0141 30.5168 16.2392C30.5168 17.47 30.2826 18.6245 29.8142 19.7028C29.3459 20.7811 28.6997 21.7295 27.8759 22.5481C27.0577 23.3724 26.1097 24.016 25.0319 24.4789C23.9541 24.9475 22.8001 25.1818 21.5699 25.1818ZM20.6389 20.4819C20.8251 20.4819 20.9944 20.4395 21.1467 20.3548C21.3047 20.2645 21.4402 20.1375 21.553 19.9738L25.4889 13.9612C25.5567 13.854 25.6103 13.7439 25.6498 13.631C25.6949 13.5181 25.7175 13.408 25.7175 13.3007C25.7175 13.041 25.6187 12.8265 25.4212 12.6571C25.2294 12.4877 25.0065 12.4031 24.7525 12.4031C24.4196 12.4031 24.1403 12.5837 23.9146 12.945L20.6219 18.1869L19.1407 16.3747C19.0278 16.2336 18.9093 16.132 18.7852 16.0698C18.6667 16.0077 18.5284 15.9767 18.3704 15.9767C18.1165 15.9767 17.8964 16.0698 17.7102 16.2562C17.524 16.4368 17.4309 16.657 17.4309 16.9167C17.4309 17.0409 17.4534 17.1594 17.4986 17.2724C17.5437 17.3853 17.6143 17.501 17.7102 17.6196L19.6909 19.9907C19.8263 20.1544 19.9702 20.2786 20.1225 20.3633C20.2749 20.4423 20.447 20.4819 20.6389 20.4819Z" fill="black"/>
</g>
<defs>
<filter id="filter0_d_1_11499" x="0.793324" y="0.568408" width="36.4517" height="36.4516" filterUnits="userSpaceOnUse" color-interpolation-filters="sRGB">
<feFlood flood-opacity="0" result="BackgroundImageFix"/>
<feColorMatrix in="SourceAlpha" type="matrix" values="0 0 0 0 0 0 0 0 0 0 0 0 0 0 0 0 0 0 127 0" result="hardAlpha"/>
<feOffset dx="-2.55502" dy="2.55502"/>
<feGaussianBlur stdDeviation="4.64162"/>
<feComposite in2="hardAlpha" operator="out"/>
<feColorMatrix type="matrix" values="0 0 0 0 0.234377 0 0 0 0 0.342499 0 0 0 0 0.388835 0 0 0 0.3 0"/>
<feBlend mode="normal" in2="BackgroundImageFix" result="effect1_dropShadow_1_11499"/>
<feBlend mode="normal" in="SourceGraphic" in2="effect1_dropShadow_1_11499" result="shape"/>
</filter>
</defs>
</svg>
