<svg width="16" height="16" viewBox="0 0 16 16" fill="none" xmlns="http://www.w3.org/2000/svg">
<path d="M0.194109 15.0086C-0.0695628 14.7547 -0.0597972 14.3347 0.194109 14.0808L6.66872 7.60622L0.194109 1.13161C-0.0597972 0.877703 -0.0597972 0.457781 0.194109 0.194109C0.448015 -0.0695628 0.877703 -0.0597972 1.13161 0.194109L7.60622 6.66872L14.0711 0.194109C14.325 -0.0597972 14.7449 -0.0597972 15.0086 0.194109C15.2722 0.448015 15.2625 0.877703 15.0086 1.13161L8.53395 7.60622L15.0086 14.0808C15.2625 14.3347 15.2625 14.7547 15.0086 15.0086C14.7547 15.2722 14.325 15.2722 14.0711 15.0086L7.60622 8.54372L1.13161 15.0086C0.877703 15.2722 0.457781 15.2722 0.194109 15.0086Z" fill="#898C94"/>
</svg>
