<svg width="358" height="95" viewBox="0 0 358 95" fill="none" xmlns="http://www.w3.org/2000/svg">
<path d="M298.183 26.7727V95H358V0L328.995 0.172727L266.596 9.88864V0L237.591 0.172727L174.718 9.975C173.728 4.40455 168.865 0.129545 163.013 0.129545H11.8774C5.33622 0.129545 0 5.48409 0 12.0477V46.6796C0 53.2432 7.87523 58.5977 14.4164 58.5977H118.559C128.155 58.5977 127.122 70.5159 118.559 70.5159H0V94.9136H163.013C169.554 94.9136 174.89 89.5591 174.89 82.9955V30.9182L206.778 26.7295V94.9568H266.596V30.875L298.183 26.7295V26.7727ZM43.9377 23.4909H118.774C122.432 23.4909 125.401 26.4705 125.401 30.1409C125.401 33.8114 122.389 36.7909 118.774 36.7909H43.9377C40.2798 36.7909 37.3105 33.8114 37.3105 30.1409C37.3105 26.4705 40.3229 23.4909 43.9377 23.4909Z" fill="#898C94" fill-opacity="0.5"/>
</svg>
